<svg class="main-svg" xmlns="http://www.w3.org/2000/svg" xmlns:xlink="http://www.w3.org/1999/xlink" width="640" height="360" style="" viewBox="0 0 640 360"><rect x="0" y="0" width="640" height="360" style="fill: rgb(255, 255, 255); fill-opacity: 1;"/><defs id="defs-e6b158"><g class="clips"/><g class="gradients"/></defs><g class="bglayer"/><g class="layer-below"><g class="imagelayer"/><g class="shapelayer"/></g><g class="cartesianlayer"/><g class="polarlayer"/><g class="ternarylayer"/><g class="geolayer"/><g class="funnelarealayer"/><g class="pielayer"/><g class="treemaplayer"/><g class="sunburstlayer"/><g class="glimages"/><g class="sankey" transform="translate(80,30)matrix(1 0 0 1 0 0)" style="box-sizing: content-box; position: absolute; left: 0px; shape-rendering: geometricprecision; pointer-events: auto;"><g class="sankey-links" style="fill: none;"><path class="sankey-link" d="M20,1.6342482922482304e-13C240,1.6342482922482304e-13 240,9.999999999999988 460,9.999999999999988L460,41.1111111111111C240,41.1111111111111 240,31.111111111111274 20,31.111111111111274Z" style="stroke: rgb(68, 68, 68); stroke-opacity: 1; fill: rgb(0, 0, 0); fill-opacity: 0.2; stroke-width: 0; opacity: 1;"/><path class="sankey-link" d="M20,103.33333333333343C240,103.33333333333343 240,41.1111111111111 460,41.1111111111111L460,72.22222222222221C240,72.22222222222221 240,134.44444444444454 20,134.44444444444454Z" style="stroke: rgb(68, 68, 68); stroke-opacity: 1; fill: rgb(0, 0, 0); fill-opacity: 0.2; stroke-width: 0; opacity: 1;"/><path class="sankey-link" d="M20,31.11111111111127C240,31.11111111111127 240,82.2222222222222 460,82.2222222222222L460,113.33333333333331C240,113.33333333333331 240,62.222222222222385 20,62.222222222222385Z" style="stroke: rgb(68, 68, 68); stroke-opacity: 1; fill: rgb(0, 0, 0); fill-opacity: 0.2; stroke-width: 0; opacity: 1;"/><path class="sankey-link" d="M20,134.44444444444454C240,134.44444444444454 240,113.3333333333333 460,113.3333333333333L460,144.4444444444444C240,144.4444444444444 240,165.55555555555563 20,165.55555555555563Z" style="stroke: rgb(68, 68, 68); stroke-opacity: 1; fill: rgb(0, 0, 0); fill-opacity: 0.2; stroke-width: 0; opacity: 1;"/><path class="sankey-link" d="M20,288.8888888888889C240,288.8888888888889 240,288.8888888888889 460,288.8888888888889L460,320C240,320 240,320 20,320Z" style="stroke: rgb(68, 68, 68); stroke-opacity: 1; fill: rgb(0, 0, 0); fill-opacity: 0.2; stroke-width: 0; opacity: 1;"/><path class="sankey-link" d="M20,165.55555555555566C240,165.55555555555566 240,185.55555555555557 460,185.55555555555557L460,216.66666666666666C240,216.66666666666666 240,196.66666666666674 20,196.66666666666674Z" style="stroke: rgb(68, 68, 68); stroke-opacity: 1; fill: rgb(0, 0, 0); fill-opacity: 0.2; stroke-width: 0; opacity: 1;"/><path class="sankey-link" d="M20,206.66666666666686C240,206.66666666666686 240,216.66666666666669 460,216.66666666666669L460,247.77777777777777C240,247.77777777777777 240,237.77777777777794 20,237.77777777777794Z" style="stroke: rgb(68, 68, 68); stroke-opacity: 1; fill: rgb(0, 0, 0); fill-opacity: 0.2; stroke-width: 0; opacity: 1;"/><path class="sankey-link" d="M20,247.77777777777794C240,247.77777777777794 240,247.77777777777783 460,247.77777777777783L460,278.8888888888889C240,278.8888888888889 240,278.888888888889 20,278.888888888889Z" style="stroke: rgb(68, 68, 68); stroke-opacity: 1; fill: rgb(0, 0, 0); fill-opacity: 0.2; stroke-width: 0; opacity: 1;"/><path class="sankey-link" d="M20,62.222222222222385C240,62.222222222222385 240,154.44444444444446 460,154.44444444444446L460,185.55555555555554C240,185.55555555555554 240,93.3333333333335 20,93.3333333333335Z" style="stroke: rgb(68, 68, 68); stroke-opacity: 1; fill: rgb(0, 0, 0); fill-opacity: 0.2; stroke-width: 0; opacity: 1;"/></g><g class="sankey-node-set" style="cursor: move;"><g class="sankey-node" transform="translate(460.000,10.000)" style="opacity: 1;"><rect class="node-rect" width="20" height="62.222222222222214" style="stroke-width: 0.1; stroke: rgb(0, 0, 0); stroke-opacity: 1; fill: rgb(99, 110, 250); fill-opacity: 0.8;"/><rect class="node-capture" x="-10" y="-5" width="40" height="72.22222222222221" style="fill-opacity: 0;"/><g class="node-entered" transform="translate(0,32.11111111111111)"><path class="node-label-guide" id="14b299_0_node_0" d="M-480,0L-4,0" transform="matrix(1 0 0 1 0 0)"/><text class="node-label" transform="scale(1 1)" style="cursor: default; fill: rgb(49, 51, 63); text-shadow: rgb(255, 255, 255) -1px 1px 1px, rgb(255, 255, 255) 1px 1px 1px, rgb(255, 255, 255) 1px -1px 1px, rgb(255, 255, 255) -1px -1px 1px; font-family: 'Source Sans Pro', sans-serif; font-size: 15px; fill-opacity: 1;"><textPath class="node-label-text-path" alignment-baseline="middle" xlink:href="#14b299_0_node_0" startOffset="100%" text-anchor="end" style="fill: rgb(0, 0, 0);">eurodance</textPath></text></g></g><g class="sankey-node" transform="translate(460.000,82.222)" style="opacity: 1;"><rect class="node-rect" width="20" height="62.22222222222226" style="stroke-width: 0.1; stroke: rgb(0, 0, 0); stroke-opacity: 1; fill: rgb(0, 204, 150); fill-opacity: 0.8;"/><rect class="node-capture" x="-10" y="-5" width="40" height="72.22222222222226" style="fill-opacity: 0;"/><g class="node-entered" transform="translate(0,32.11111111111113)"><path class="node-label-guide" id="14b299_0_node_2" d="M-480,0L-4,0" transform="matrix(1 0 0 1 0 0)"/><text class="node-label" transform="scale(1 1)" style="cursor: default; fill: rgb(49, 51, 63); text-shadow: rgb(255, 255, 255) -1px 1px 1px, rgb(255, 255, 255) 1px 1px 1px, rgb(255, 255, 255) 1px -1px 1px, rgb(255, 255, 255) -1px -1px 1px; font-family: 'Source Sans Pro', sans-serif; font-size: 15px; fill-opacity: 1;"><textPath class="node-label-text-path" alignment-baseline="middle" xlink:href="#14b299_0_node_2" startOffset="100%" text-anchor="end" style="fill: rgb(0, 0, 0);">bubblegum dance</textPath></text></g></g><g class="sankey-node" transform="translate(460.000,288.889)" style="opacity: 1;"><rect class="node-rect" width="20" height="31.111111111111086" style="stroke-width: 0.1; stroke: rgb(0, 0, 0); stroke-opacity: 1; fill: rgb(255, 161, 90); fill-opacity: 0.8;"/><rect class="node-capture" x="-10" y="-5" width="40" height="41.111111111111086" style="fill-opacity: 0;"/><g class="node-entered" transform="translate(0,16.555555555555543)"><path class="node-label-guide" id="14b299_0_node_4" d="M-480,0L-4,0" transform="matrix(1 0 0 1 0 0)"/><text class="node-label" transform="scale(1 1)" style="cursor: default; fill: rgb(49, 51, 63); text-shadow: rgb(255, 255, 255) -1px 1px 1px, rgb(255, 255, 255) 1px 1px 1px, rgb(255, 255, 255) 1px -1px 1px, rgb(255, 255, 255) -1px -1px 1px; font-family: 'Source Sans Pro', sans-serif; font-size: 15px; fill-opacity: 1;"><textPath class="node-label-text-path" alignment-baseline="middle" xlink:href="#14b299_0_node_4" startOffset="100%" text-anchor="end" style="fill: rgb(0, 0, 0);">europop</textPath></text></g></g><g class="sankey-node" transform="translate(460.000,154.444)" style="opacity: 1;"><rect class="node-rect" width="20" height="124.44444444444446" style="stroke-width: 0.1; stroke: rgb(0, 0, 0); stroke-opacity: 1; fill: rgb(25, 211, 243); fill-opacity: 0.8;"/><rect class="node-capture" x="-10" y="-5" width="40" height="134.44444444444446" style="fill-opacity: 0;"/><g class="node-entered" transform="translate(0,63.22222222222223)"><path class="node-label-guide" id="14b299_0_node_5" d="M-480,0L-4,0" transform="matrix(1 0 0 1 0 0)"/><text class="node-label" transform="scale(1 1)" style="cursor: default; fill: rgb(49, 51, 63); text-shadow: rgb(255, 255, 255) -1px 1px 1px, rgb(255, 255, 255) 1px 1px 1px, rgb(255, 255, 255) 1px -1px 1px, rgb(255, 255, 255) -1px -1px 1px; font-family: 'Source Sans Pro', sans-serif; font-size: 15px; fill-opacity: 1;"><textPath class="node-label-text-path" alignment-baseline="middle" xlink:href="#14b299_0_node_5" startOffset="100%" text-anchor="end" style="fill: rgb(0, 0, 0);">hip house</textPath></text></g></g><g class="sankey-node" transform="translate(0.000,0.000)" style="opacity: 1;"><rect class="node-rect" width="20" height="93.33333333333326" style="stroke-width: 0.1; stroke: rgb(0, 0, 0); stroke-opacity: 1; fill: rgb(254, 203, 82); fill-opacity: 0.8;"/><rect class="node-capture" x="-10" y="-5" width="40" height="103.33333333333326" style="fill-opacity: 0;"/><g class="node-entered" transform="translate(0,47.66666666666663)"><path class="node-label-guide" id="14b299_0_node_9" d="M24,0L480,0" transform="matrix(1 0 0 1 0 0)"/><text class="node-label" transform="scale(1 1)" style="cursor: default; fill: rgb(49, 51, 63); text-shadow: rgb(255, 255, 255) -1px 1px 1px, rgb(255, 255, 255) 1px 1px 1px, rgb(255, 255, 255) 1px -1px 1px, rgb(255, 255, 255) -1px -1px 1px; font-family: 'Source Sans Pro', sans-serif; font-size: 15px; fill-opacity: 1;"><textPath class="node-label-text-path" alignment-baseline="middle" xlink:href="#14b299_0_node_9" startOffset="0%" text-anchor="start" style="fill: rgb(0, 0, 0);">Electronique</textPath></text></g></g><g class="sankey-node" transform="translate(0.000,103.333)" style="opacity: 1;"><rect class="node-rect" width="20" height="93.33333333333343" style="stroke-width: 0.1; stroke: rgb(0, 0, 0); stroke-opacity: 1; fill: rgb(99, 110, 250); fill-opacity: 0.8;"/><rect class="node-capture" x="-10" y="-5" width="40" height="103.33333333333343" style="fill-opacity: 0;"/><g class="node-entered" transform="translate(0,47.666666666666714)"><path class="node-label-guide" id="14b299_0_node_10" d="M24,0L480,0" transform="matrix(1 0 0 1 0 0)"/><text class="node-label" transform="scale(1 1)" style="cursor: default; fill: rgb(49, 51, 63); text-shadow: rgb(255, 255, 255) -1px 1px 1px, rgb(255, 255, 255) 1px 1px 1px, rgb(255, 255, 255) 1px -1px 1px, rgb(255, 255, 255) -1px -1px 1px; font-family: 'Source Sans Pro', sans-serif; font-size: 15px; fill-opacity: 1;"><textPath class="node-label-text-path" alignment-baseline="middle" xlink:href="#14b299_0_node_10" startOffset="0%" text-anchor="start" style="fill: rgb(0, 0, 0);">Dance</textPath></text></g></g><g class="sankey-node" transform="translate(0.000,288.889)" style="opacity: 1;"><rect class="node-rect" width="20" height="31.111111111111086" style="stroke-width: 0.1; stroke: rgb(0, 0, 0); stroke-opacity: 1; fill: rgb(171, 99, 250); fill-opacity: 0.8;"/><rect class="node-capture" x="-10" y="-5" width="40" height="41.111111111111086" style="fill-opacity: 0;"/><g class="node-entered" transform="translate(0,16.555555555555543)"><path class="node-label-guide" id="14b299_0_node_13" d="M24,0L480,0" transform="matrix(1 0 0 1 0 0)"/><text class="node-label" transform="scale(1 1)" style="cursor: default; fill: rgb(49, 51, 63); text-shadow: rgb(255, 255, 255) -1px 1px 1px, rgb(255, 255, 255) 1px 1px 1px, rgb(255, 255, 255) 1px -1px 1px, rgb(255, 255, 255) -1px -1px 1px; font-family: 'Source Sans Pro', sans-serif; font-size: 15px; fill-opacity: 1;"><textPath class="node-label-text-path" alignment-baseline="middle" xlink:href="#14b299_0_node_13" startOffset="0%" text-anchor="start" style="fill: rgb(0, 0, 0);">Pop</textPath></text></g></g><g class="sankey-node" transform="translate(0.000,206.667)" style="opacity: 1;"><rect class="node-rect" width="20" height="31.111111111111086" style="stroke-width: 0.1; stroke: rgb(0, 0, 0); stroke-opacity: 1; fill: rgb(25, 211, 243); fill-opacity: 0.8;"/><rect class="node-capture" x="-10" y="-5" width="40" height="41.111111111111086" style="fill-opacity: 0;"/><g class="node-entered" transform="translate(0,16.555555555555543)"><path class="node-label-guide" id="14b299_0_node_15" d="M24,0L480,0" transform="matrix(1 0 0 1 0 0)"/><text class="node-label" transform="scale(1 1)" style="cursor: default; fill: rgb(49, 51, 63); text-shadow: rgb(255, 255, 255) -1px 1px 1px, rgb(255, 255, 255) 1px 1px 1px, rgb(255, 255, 255) 1px -1px 1px, rgb(255, 255, 255) -1px -1px 1px; font-family: 'Source Sans Pro', sans-serif; font-size: 15px; fill-opacity: 1;"><textPath class="node-label-text-path" alignment-baseline="middle" xlink:href="#14b299_0_node_15" startOffset="0%" text-anchor="start" style="fill: rgb(0, 0, 0);">Hip hop</textPath></text></g></g><g class="sankey-node" transform="translate(0.000,247.778)" style="opacity: 1;"><rect class="node-rect" width="20" height="31.111111111110972" style="stroke-width: 0.1; stroke: rgb(0, 0, 0); stroke-opacity: 1; fill: rgb(255, 102, 146); fill-opacity: 0.8;"/><rect class="node-capture" x="-10" y="-5" width="40" height="41.11111111111097" style="fill-opacity: 0;"/><g class="node-entered" transform="translate(0,16.555555555555486)"><path class="node-label-guide" id="14b299_0_node_16" d="M24,0L480,0" transform="matrix(1 0 0 1 0 0)"/><text class="node-label" transform="scale(1 1)" style="cursor: default; fill: rgb(49, 51, 63); text-shadow: rgb(255, 255, 255) -1px 1px 1px, rgb(255, 255, 255) 1px 1px 1px, rgb(255, 255, 255) 1px -1px 1px, rgb(255, 255, 255) -1px -1px 1px; font-family: 'Source Sans Pro', sans-serif; font-size: 15px; fill-opacity: 1;"><textPath class="node-label-text-path" alignment-baseline="middle" xlink:href="#14b299_0_node_16" startOffset="0%" text-anchor="start" style="fill: rgb(0, 0, 0);">Musiques du monde</textPath></text></g></g></g></g><defs id="topdefs-e6b158"><g class="clips"/></defs><g class="layer-above"><g class="imagelayer"/><g class="shapelayer"/></g><g class="infolayer"><g class="g-gtitle"/><g class="first-render"/></g></svg>